# xmcd CD database file
#
# Track frame offsets:
#	150
#	14325
#	26285
#	41255
#	52645
#	64602
#	77432
#	92187
#	103872
#	116370
#
# Disc length: 1716 seconds
#
# Revision: 0
# Processed by: cddbd v1.5.1PL0 Copyright (c) Steve Scherf et al.
# Submitted via: CDex 1.60beta1
#
DISCID=6606b20a
DTITLE=Bob Wills And The Texas Playboys - Back To Back
DYEAR=1900
DGENRE=Country
TTITLE0=House Of Blue Lights
TTITLE1=San Antonio Rose
TTITLE2=Boogie Back To Texas
TTITLE3=New Spanish Two-Step
TTITLE4=Way Down Texas Way
TTITLE5=Texarkana Baby
TTITLE6=Choo Choo Ch'bookie
TTITLE7=Roly-Poly
TTITLE8=Miss Molly
TTITLE9=Stray A Little Longer
EXTD=
EXTT0=
EXTT1=
EXTT2=
EXTT3=
EXTT4=
EXTT5=
EXTT6=
EXTT7=
EXTT8=
EXTT9=
PLAYORDER=
